<?xml version="1.0" encoding="UTF-8" standalone="no"?>
<svg
   xmlns:dc="http://purl.org/dc/elements/1.1/"
   xmlns:cc="http://creativecommons.org/ns#"
   xmlns:rdf="http://www.w3.org/1999/02/22-rdf-syntax-ns#"
   xmlns:svg="http://www.w3.org/2000/svg"
   xmlns="http://www.w3.org/2000/svg"
   xmlns:xlink="http://www.w3.org/1999/xlink"
   xmlns:sodipodi="http://sodipodi.sourceforge.net/DTD/sodipodi-0.dtd"
   xmlns:inkscape="http://www.inkscape.org/namespaces/inkscape"
   sodipodi:docname="logo.svg"
   inkscape:version="1.0 (4035a4f, 2020-05-01)"
   id="svg8"
   version="1.1"
   viewBox="0 0 135.46666 135.46667"
   height="512"
   width="512">
  <defs
     id="defs2">
    <inkscape:path-effect
       hide_knots="false"
       only_selected="false"
       apply_with_radius="true"
       apply_no_radius="true"
       use_knot_distance="true"
       flexible="false"
       chamfer_steps="1"
       radius="40"
       mode="F"
       method="auto"
       unit="px"
       satellites_param="F,0,0,1,0,10.583333,0,1 @ F,0,0,1,0,10.583333,0,1 @ F,0,0,1,0,10.583333,0,1 @ F,0,0,1,0,10.583333,0,1"
       lpeversion="1"
       is_visible="true"
       id="path-effect843"
       effect="fillet_chamfer" />
    <linearGradient
       id="linearGradient839"
       inkscape:collect="always">
      <stop
         id="stop835"
         offset="0"
         style="stop-color:#0084c8;stop-opacity:1" />
      <stop
         id="stop837"
         offset="1"
         style="stop-color:#005c94;stop-opacity:1" />
    </linearGradient>
    <linearGradient
       gradientUnits="userSpaceOnUse"
       y2="147.66692"
       x2="149.22437"
       y1="0"
       x1="-8.8817842e-16"
       id="linearGradient841"
       xlink:href="#linearGradient839"
       inkscape:collect="always" />
    <clipPath
       id="clipPath982"
       clipPathUnits="userSpaceOnUse">
      <g
         transform="matrix(4.4550559,-0.94470648,0.94470648,4.4550559,264.04549,256.81521)"
         id="g990">
        <text
           id="text986"
           y="120.96682"
           x="22.328291"
           style="font-style:normal;font-variant:normal;font-weight:normal;font-stretch:normal;font-size:149.113px;line-height:1.25;font-family:'Noto Sans';-inkscape-font-specification:'Noto Sans';letter-spacing:0px;word-spacing:0px;fill:#ffffff;fill-opacity:1;stroke:none;stroke-width:5.08339"
           xml:space="preserve"><tspan
             style="font-style:italic;font-variant:normal;font-weight:300;font-stretch:normal;font-family:'Noto Sans';-inkscape-font-specification:'Noto Sans Light Italic';fill:#ffffff;stroke-width:5.08339"
             y="120.96682"
             x="22.328291"
             id="tspan984"
             sodipodi:role="line">P</tspan></text>
        <path
           style="opacity:1;vector-effect:none;fill:#005c94;fill-opacity:0.6;stroke:#269926;stroke-width:0.4;stroke-linecap:round;stroke-linejoin:round;stroke-miterlimit:4;stroke-dasharray:none;stroke-dashoffset:0;stroke-opacity:0.6"
           d="M 54.993388,20.128351 43.054277,74.974473 64.178147,74.27044 88.15734,69.175918 97.764437,55.252683 101.83159,35.573848 96.177014,23.858466 80.108273,17.789456 Z"
           id="path988" />
      </g>
    </clipPath>
  </defs>
  <sodipodi:namedview
     inkscape:window-maximized="1"
     inkscape:window-y="34"
     inkscape:window-x="0"
     inkscape:window-height="1018"
     inkscape:window-width="1920"
     units="px"
     showgrid="false"
     inkscape:document-rotation="0"
     inkscape:current-layer="layer1"
     inkscape:document-units="mm"
     inkscape:cy="196.68455"
     inkscape:cx="87.140164"
     inkscape:zoom="0.98994949"
     inkscape:pageshadow="2"
     inkscape:pageopacity="0.0"
     borderopacity="1.0"
     bordercolor="#666666"
     pagecolor="#ffffff"
     id="base" />
  <metadata
     id="metadata5">
    <rdf:RDF>
      <cc:Work
         rdf:about="">
        <dc:format>image/svg+xml</dc:format>
        <dc:type
           rdf:resource="http://purl.org/dc/dcmitype/StillImage" />
        <dc:title></dc:title>
      </cc:Work>
    </rdf:RDF>
  </metadata>
  <g
     id="layer1"
     inkscape:groupmode="layer"
     inkscape:label="Layer 1">
    <path
       sodipodi:type="rect"
       d="M 10.583333,0 H 124.88333 a 10.583333,10.583333 45 0 1 10.58333,10.583333 V 124.88333 a 10.583333,10.583333 135 0 1 -10.58333,10.58333 H 10.583333 A 10.583333,10.583333 45 0 1 0,124.88333 V 10.583333 A 10.583333,10.583333 135 0 1 10.583333,0 Z"
       inkscape:path-effect="#path-effect843"
       y="0"
       x="-8.8817842e-16"
       height="135.46666"
       width="135.46666"
       id="rect833"
       style="fill:url(#linearGradient841);fill-opacity:1;stroke-width:0;stroke-miterlimit:4;stroke-dasharray:none" />
    <path
       id="path857"
       d="M -52.786656,58.643268 H 10.102991"
       style="opacity:1;vector-effect:none;fill:none;fill-opacity:0.6;stroke:#005c94;stroke-width:0.979135;stroke-linecap:round;stroke-linejoin:round;stroke-miterlimit:4;stroke-dasharray:none;stroke-dashoffset:0;stroke-opacity:0.6" />
    <g
       clip-path="url(#clipPath982)"
       transform="matrix(0.21480508,0.04554999,-0.04554999,0.21480508,-45.020382,-67.19248)"
       id="g950">
      <g
         transform="matrix(0.56014845,0,0,0.56014845,493.10974,258.48798)"
         id="g960">
        <g
           id="g865">
	<path
   sodipodi:nodetypes="sssssss"
   id="path859"
   d="m 255.997,514.43051 c -8.293,0 -15.016,-6.723 -15.016,-15.016 V -7.916145 c 0,-8.293 6.723,-15.016 15.016,-15.016 8.293,0 15.016,6.723 15.016,15.016 V 499.41451 c 0,8.293 -6.723,15.016 -15.016,15.016 z"
   style="fill:#dadada" />

	<path
   sodipodi:nodetypes="sssssss"
   id="path861"
   d="m 143.49,517.25057 c -8.293,0 -15.016,-6.723 -15.016,-15.016 V 52.193 c 0,-8.293 6.723,-15.016 15.016,-15.016 8.293,0 15.016,6.723 15.016,15.016 v 450.04157 c 0,8.293 -6.723,15.016 -15.016,15.016 z"
   style="fill:#dadada" />

	<path
   sodipodi:nodetypes="sssssss"
   id="path863"
   d="m 373.803,504.60502 c -8.293,0 -15.016,-6.723 -15.016,-15.016 V 52.193 c 0,-8.293 6.723,-15.016 15.016,-15.016 8.293,0 15.016,6.723 15.016,15.016 v 437.39602 c 0,8.292 -6.722,15.016 -15.016,15.016 z"
   style="fill:#dadada" />

</g>
        <g
           id="g873">
	<path
   id="path867"
   d="M 461.805,271.575 H 50.189 c -8.293,0 -15.016,-6.723 -15.016,-15.016 0,-8.293 6.723,-15.016 15.016,-15.016 h 411.616 c 8.293,0 15.016,6.723 15.016,15.016 10e-4,8.292 -6.723,15.016 -15.016,15.016 z"
   style="fill:#e6e6e6" />

	<path
   id="path869"
   d="M 449.762,374.785 H 64.133 c -8.293,0 -15.016,-6.723 -15.016,-15.016 0,-8.293 6.723,-15.016 15.016,-15.016 h 385.629 c 8.293,0 15.016,6.723 15.016,15.016 0,8.293 -6.722,15.016 -15.016,15.016 z"
   style="fill:#e6e6e6" />

	<path
   sodipodi:nodetypes="ssssscs"
   id="path871"
   d="M 461.805,168.875 H -5.3811967 c -8.2930003,0 -15.0160003,-6.723 -15.0160003,-15.016 0,-8.293 6.723,-15.016 15.0160003,-15.016 H 461.805 c 8.293,0 15.016,6.723 15.016,15.016 10e-4,8.293 -6.723,15.016 -15.016,15.016 z"
   style="fill:#e6e6e6" />

</g>
      </g>
      <g
         id="g885">
</g>
      <g
         id="g887">
</g>
      <g
         id="g889">
</g>
      <g
         id="g891">
</g>
      <g
         id="g893">
</g>
      <g
         id="g895">
</g>
      <g
         id="g897">
</g>
      <g
         id="g899">
</g>
      <g
         id="g901">
</g>
      <g
         id="g903">
</g>
      <g
         id="g905">
</g>
      <g
         id="g907">
</g>
      <g
         id="g909">
</g>
      <g
         id="g911">
</g>
      <g
         id="g913">
</g>
    </g>
    <text
       id="text847"
       y="120.96682"
       x="22.328291"
       style="font-style:normal;font-variant:normal;font-weight:normal;font-stretch:normal;font-size:149.113px;line-height:1.25;font-family:'Noto Sans';-inkscape-font-specification:'Noto Sans';letter-spacing:0px;word-spacing:0px;fill:#ffffff;fill-opacity:1;stroke:none;stroke-width:5.08339"
       xml:space="preserve"><tspan
         style="font-style:italic;font-variant:normal;font-weight:300;font-stretch:normal;font-family:'Noto Sans';-inkscape-font-specification:'Noto Sans Light Italic';fill:#ffffff;stroke-width:5.08339"
         y="120.96682"
         x="22.328291"
         id="tspan845"
         sodipodi:role="line">P</tspan></text>
  </g>
</svg>
